<svg width="2265" height="1383" xmlns="http://www.w3.org/2000/svg" xmlns:xlink="http://www.w3.org/1999/xlink" xml:space="preserve" overflow="hidden"><g transform="translate(-1194 -49)"><path d="M1374 1294.84 3326.16 1294.84 3326.16 1305.16 1374 1305.16ZM3321 1284.53 3351.94 1300 3321 1315.47Z"/><path d="M5.15625-1.72974e-06 5.1566 1050.02-5.1559 1050.02-5.15625 1.72974e-06ZM15.4691 1044.86 0.000360892 1075.8-15.4684 1044.86Z" transform="matrix(1 0 0 -1 1374 1299.8)"/><path d="M0 0 1389.51 448.414" stroke="#0B76A0" stroke-width="10.3125" stroke-miterlimit="8" fill="none" fill-rule="evenodd" transform="matrix(1 0 0 -1 1374 1300.41)"/><path d="M0 0 476.619 382.606" stroke="#0B76A0" stroke-width="10.3125" stroke-miterlimit="8" fill="none" fill-rule="evenodd" transform="matrix(-1 0 0 1 3240.62 469)"/><text font-family="Aptos,Aptos_MSFontService,sans-serif" font-weight="400" font-size="64" transform="matrix(1 0 0 1 1415.9 1160)">Hosting</text><text font-family="Aptos,Aptos_MSFontService,sans-serif" font-weight="400" font-size="64" transform="matrix(1 0 0 1 1754.91 990)">ASP</text><text font-family="Aptos,Aptos_MSFontService,sans-serif" font-weight="400" font-size="64" transform="matrix(1 0 0 1 2056.69 849)">Grid </text><text font-family="Aptos,Aptos_MSFontService,sans-serif" font-weight="400" font-size="64" transform="matrix(1 0 0 1 1960.73 926)">Computing</text><text font-family="Aptos,Aptos_MSFontService,sans-serif" font-weight="400" font-size="64" transform="matrix(1 0 0 1 2237.79 811)">Virtualization</text><text font-family="Aptos,Aptos_MSFontService,sans-serif" font-weight="400" font-size="64" transform="matrix(1 0 0 1 2641.71 739)">Cloud</text><text font-family="Aptos,Aptos_MSFontService,sans-serif" font-weight="400" font-size="64" transform="matrix(1 0 0 1 2955.29 555)">Open </text><text font-family="Aptos,Aptos_MSFontService,sans-serif" font-weight="400" font-size="64" transform="matrix(1 0 0 1 2946.97 632)">Cloud</text><text font-family="Aptos,Aptos_MSFontService,sans-serif" font-weight="700" font-size="55" transform="matrix(1 0 0 1 1446.76 1383)">1995</text><text font-family="Aptos,Aptos_MSFontService,sans-serif" font-weight="700" font-size="55" transform="matrix(1 0 0 1 1752.02 1377)">2000</text><text font-family="Aptos,Aptos_MSFontService,sans-serif" font-weight="700" font-size="55" transform="matrix(1 0 0 1 2057.27 1383)">2005</text><text font-family="Aptos,Aptos_MSFontService,sans-serif" font-weight="700" font-size="55" transform="matrix(1 0 0 1 2362.53 1383)">2010</text><text font-family="Aptos,Aptos_MSFontService,sans-serif" font-weight="700" font-size="55" transform="matrix(1 0 0 1 2667.78 1383)">2015</text><text font-family="Aptos,Aptos_MSFontService,sans-serif" font-weight="700" font-size="55" transform="matrix(1 0 0 1 2973.04 1383)">2020</text><text font-family="Aptos,Aptos_MSFontService,sans-serif" font-weight="700" font-size="55" transform="matrix(1 0 0 1 1230.51 117)">Global CPU </text><text font-family="Aptos,Aptos_MSFontService,sans-serif" font-weight="700" font-size="55" transform="matrix(1 0 0 1 1254.09 183)">Workload</text><path d="M3222.18 450.095 1382.5 437.5" stroke="#000000" stroke-width="6.875" stroke-linecap="square" stroke-miterlimit="8" stroke-dasharray="20.625 6.875" fill="none" fill-rule="evenodd"/><text font-family="Aptos,Aptos_MSFontService,sans-serif" font-weight="700" font-size="55" transform="matrix(1 0 0 1 3264.09 466)">80%</text><text font-family="Aptos,Aptos_MSFontService,sans-serif" font-weight="400" font-size="32" transform="matrix(1 0 0 1 1731.68 1042)">Application </text><text font-family="Aptos,Aptos_MSFontService,sans-serif" font-weight="400" font-size="32" transform="matrix(1 0 0 1 1759.47 1080)">Service </text><text font-family="Aptos,Aptos_MSFontService,sans-serif" font-weight="400" font-size="32" transform="matrix(1 0 0 1 1746.87 1119)">Providing</text><text font-family="Aptos,Aptos_MSFontService,sans-serif" font-weight="400" font-size="32" transform="matrix(1 0 0 1 2045.81 978)">Industry &amp; </text><text font-family="Aptos,Aptos_MSFontService,sans-serif" font-weight="400" font-size="32" transform="matrix(1 0 0 1 2045.81 1016)">Academia</text><text font-family="Aptos,Aptos_MSFontService,sans-serif" font-weight="400" font-size="32" transform="matrix(1 0 0 1 2349.36 866)">Clustering </text><text font-family="Aptos,Aptos_MSFontService,sans-serif" font-weight="400" font-size="32" transform="matrix(1 0 0 1 2338.18 904)">&amp; Container</text><text font-family="Aptos,Aptos_MSFontService,sans-serif" font-weight="400" font-size="32" transform="matrix(1 0 0 1 2668.07 794)">Storage, </text><text font-family="Aptos,Aptos_MSFontService,sans-serif" font-weight="400" font-size="32" transform="matrix(1 0 0 1 2690.71 832)">SaaS</text><text font-family="Aptos,Aptos_MSFontService,sans-serif" font-weight="400" font-size="32" transform="matrix(1 0 0 1 2981.33 699)">Hybrid, </text><text font-family="Aptos,Aptos_MSFontService,sans-serif" font-weight="400" font-size="32" transform="matrix(1 0 0 1 2979.91 737)">APIs, …</text><text font-family="Aptos,Aptos_MSFontService,sans-serif" font-weight="400" font-size="32" transform="matrix(1 0 0 1 1423.92 1213)">1</text><text font-family="Aptos,Aptos_MSFontService,sans-serif" font-weight="400" font-size="21" transform="matrix(1 0 0 1 1441.11 1203)">st</text><text font-family="Aptos,Aptos_MSFontService,sans-serif" font-weight="400" font-size="32" transform="matrix(1 0 0 1 1464.6 1213)">Generation</text></g></svg>